<?xml version="1.0" standalone="no"?>
<!DOCTYPE svg PUBLIC "-//W3C//DTD SVG 20010904//EN"
 "http://www.w3.org/TR/2001/REC-SVG-20010904/DTD/svg10.dtd">
<svg version="1.0" xmlns="http://www.w3.org/2000/svg"
 width="160.000000pt" height="160.000000pt" viewBox="0 0 160.000000 160.000000"
 preserveAspectRatio="xMidYMid meet">
<metadata>
Created by potrace 1.16, written by Peter Selinger 2001-2019
</metadata>
<g transform="translate(0.000000,160.000000) scale(0.100000,-0.100000)"
fill="#000000" stroke="none">
<path d="M265 1428 c-2 -7 -63 -224 -135 -483 l-130 -470 158 -157 157 -158
166 0 165 0 29 90 c28 87 37 101 50 80 3 -5 39 -10 79 -10 l73 0 63 -80 63
-80 195 2 196 3 102 435 c57 239 103 445 104 456 0 12 -46 103 -102 202 l-103
181 -201 1 -201 0 -11 -37 c-6 -21 -16 -57 -22 -80 l-11 -43 -59 0 c-44 0 -61
-4 -68 -16 -5 -9 -15 -14 -21 -10 -6 4 -9 11 -6 16 3 4 -2 11 -11 14 -8 3 -13
10 -10 15 3 5 -1 12 -10 15 -8 3 -12 10 -9 16 3 5 2 10 -3 10 -6 0 -24 23 -42
50 l-32 50 -204 0 c-155 0 -206 -3 -209 -12z m375 -35 c0 -5 -6 -30 -13 -58
l-13 -50 -173 -3 c-158 -2 -173 -1 -167 14 4 9 11 36 17 60 l11 44 169 0 c93
0 169 -3 169 -7z m710 0 c0 -5 -20 -84 -43 -178 l-43 -170 -82 -3 c-45 -2 -82
1 -82 5 0 4 13 59 29 121 l29 112 -80 0 -80 0 7 36 c16 89 5 84 185 84 88 0
160 -3 160 -7z m-640 -160 c0 -5 -15 -59 -34 -120 l-34 -113 304 0 c167 0 304
-3 304 -7 0 -5 -29 -122 -65 -261 l-64 -254 96 -126 c53 -70 101 -133 106
-139 7 -10 -23 -13 -144 -13 l-154 1 -110 139 c-66 84 -109 147 -107 157 3 16
76 285 88 326 5 14 -1 17 -40 17 l-45 0 -15 -52 c-41 -144 -41 -146 -23 -181
15 -29 16 -37 3 -79 l-15 -48 38 -47 c58 -75 58 -73 4 -73 l-48 0 -105 132
c-58 72 -108 136 -112 143 -4 6 4 54 17 106 14 52 25 95 25 97 0 1 -23 2 -51
2 -42 0 -52 -3 -56 -20 -5 -18 -14 -20 -94 -20 -49 0 -89 3 -89 8 0 4 6 30 14
59 l14 52 -72 3 -73 3 29 105 c16 58 35 129 44 158 l15 52 224 0 c124 0 225
-3 225 -7z m400 0 c0 -5 -11 -48 -23 -98 l-23 -90 -128 -3 c-101 -2 -127 0
-124 10 3 7 15 52 28 101 l23 87 124 0 c67 0 123 -3 123 -7z m-840 -359 c0 -4
-53 -211 -66 -256 -5 -16 4 -18 100 -18 58 0 106 -1 106 -2 0 -2 -7 -25 -15
-52 -8 -27 -15 -55 -15 -62 0 -7 50 -72 111 -146 l112 -133 -134 -3 -133 -3
-143 143 -142 143 45 160 c24 88 49 177 55 198 l10 37 54 0 c30 0 55 -2 55 -6z
m180 -126 c0 -7 -6 -33 -14 -58 l-13 -45 -87 -3 c-80 -3 -87 -1 -82 15 2 10
10 37 16 61 l11 42 84 0 c61 0 85 -3 85 -12z"/>
</g>
</svg>
